<svg width="54" height="36" viewBox="0 0 54 36" fill="none" xmlns="http://www.w3.org/2000/svg">
<path d="M21.661 6.6691L20.2364 7.09839C16.0881 13.4575 15.7574 18.9622 20.2364 26.7201L21.661 27.1159V24.1526C22.9777 24.9024 24.4668 25.297 25.982 25.2976C27.497 25.2969 28.9858 24.9023 30.3023 24.1526V27.1159L31.7269 26.7201C32.5962 25.2145 33.2833 23.794 33.7975 22.4354L34.5262 22.8558L35.527 21.1222L34.4271 20.4872C34.6155 19.7776 34.7541 19.0832 34.8427 18.4002H36V15.3849H34.911C34.8456 14.6325 34.7188 13.8876 34.5303 13.1454L35.527 12.5698L34.5262 10.8363L33.898 11.1986C33.3656 9.85108 32.6382 8.49539 31.7269 7.09839L30.3023 6.6691V8.96322C28.9856 8.21422 27.4968 7.82035 25.982 7.82026C24.4668 7.82086 22.9777 8.21544 21.661 8.96527V6.6691ZM25.9827 9.07123C30.1134 9.07123 33.4673 12.4279 33.4673 16.5586C33.4673 20.6892 30.1134 24.0459 25.9827 24.0459C21.852 24.0459 18.4953 20.6892 18.4953 16.5586C18.4953 12.4279 21.852 9.07123 25.9827 9.07123ZM25.9827 9.73294C22.2095 9.73294 19.1564 12.7854 19.1564 16.5586C19.1564 20.3318 22.2095 23.3849 25.9827 23.3849C29.7559 23.3849 32.8056 20.3318 32.8056 16.5586C32.8056 12.7854 29.7559 9.73294 25.9827 9.73294ZM22.9975 12.7407C23.4259 12.7407 23.8369 12.9087 24.14 13.2078C24.443 13.5069 24.6133 13.9125 24.6135 14.3355C24.6135 14.5451 24.5717 14.7525 24.4905 14.9461C24.4093 15.1397 24.2903 15.3156 24.1402 15.4638C23.9901 15.6119 23.812 15.7294 23.6159 15.8096C23.4198 15.8898 23.2097 15.9311 22.9975 15.931C22.7852 15.9311 22.5751 15.8898 22.379 15.8096C22.1829 15.7294 22.0048 15.6119 21.8547 15.4638C21.7046 15.3156 21.5856 15.1397 21.5044 14.9461C21.4232 14.7525 21.3814 14.5451 21.3815 14.3355C21.3816 13.9125 21.5519 13.5069 21.855 13.2078C22.158 12.9087 22.569 12.7407 22.9975 12.7407ZM28.9666 12.7407C29.395 12.7407 29.806 12.9087 30.1091 13.2078C30.4121 13.5069 30.5824 13.9125 30.5826 14.3355C30.5826 14.5451 30.5408 14.7525 30.4596 14.9461C30.3784 15.1397 30.2594 15.3156 30.1093 15.4638C29.9592 15.6119 29.7811 15.7294 29.585 15.8096C29.3889 15.8898 29.1788 15.9311 28.9666 15.931C28.7543 15.9311 28.5442 15.8898 28.3481 15.8096C28.152 15.7294 27.9739 15.6119 27.8238 15.4638C27.6737 15.3156 27.5547 15.1397 27.4735 14.9461C27.3923 14.7525 27.3505 14.5451 27.3506 14.3355C27.3507 13.9125 27.521 13.5069 27.824 13.2078C28.1271 12.9087 28.5381 12.7407 28.9666 12.7407ZM25.9813 12.9868L26.3573 13.6376L26.0483 16.0432C26.082 16.0477 26.1163 16.056 26.1502 16.0678C26.4657 16.1775 26.5988 16.558 26.4195 16.8368C26.3025 17.0189 26.0773 17.1134 25.8726 17.0672C25.7409 17.0374 25.6281 16.9582 25.5541 16.8512L22.1238 19.1514L21.0752 19.3982L21.8128 18.6134L25.5192 16.793C25.4936 16.7435 25.4762 16.6895 25.4679 16.6331C25.4244 16.3341 25.6438 16.0799 25.9157 16.0438L25.6053 13.6376L25.9813 12.9868ZM25.982 19.0188C26.1942 19.0188 26.4044 19.0601 26.6005 19.1402C26.7965 19.2204 26.9747 19.338 27.1248 19.4861C27.2748 19.6343 27.3938 19.8102 27.475 20.0037C27.5563 20.1973 27.598 20.4048 27.598 20.6143C27.5979 21.0373 27.4276 21.443 27.1245 21.7421C26.8215 22.0411 26.4105 22.2091 25.982 22.2091C25.5535 22.2091 25.1425 22.0411 24.8395 21.7421C24.5365 21.443 24.3661 21.0373 24.366 20.6143C24.366 20.4048 24.4078 20.1973 24.489 20.0037C24.5702 19.8102 24.6892 19.6343 24.8393 19.4861C24.9893 19.338 25.1675 19.2204 25.3635 19.1402C25.5596 19.0601 25.7698 19.0188 25.982 19.0188Z" fill="white" fill-opacity="0.9"/>
<path d="M21.661 0V7.82026H30.3023V0H21.661ZM21.661 25.2976V33.1172H30.3023V25.2976H21.661Z" fill="white" fill-opacity="0.9"/>
<path d="M4.34278 18.3543L3.60182 18.9468C2.65829 23.6954 3.77065 27.0312 8.26446 30.5574L9.20147 30.4531L8.4973 28.6996C9.45459 28.8304 10.4294 28.71 11.3262 28.3503C12.2225 27.9899 13.0097 27.4026 13.6105 26.6462L14.3147 28.3997L15.0636 27.8269C15.2202 26.7295 15.2892 25.7257 15.2706 24.7996L15.8017 24.8752L15.9819 23.6116L15.1802 23.4972C15.1231 23.0325 15.0401 22.5887 14.9302 22.1635L15.615 21.8885L14.8985 20.1042L14.2541 20.363C14.0367 19.9334 13.7846 19.5228 13.4967 19.1284L13.9497 18.551L12.9456 17.763L12.6599 18.1266C12.0247 17.4558 11.2721 16.8265 10.4009 16.2164L9.45597 16.3009L10.0011 17.6584C9.04402 17.528 8.06949 17.6488 7.17312 18.0087C6.27667 18.3691 5.48934 18.9564 4.88841 19.713L4.34278 18.3543ZM7.47079 18.7487C9.91498 17.7672 12.6972 18.9564 13.6788 21.4006C14.6603 23.8448 13.4734 26.628 11.0292 27.6095C8.58497 28.5911 5.80112 27.4025 4.81957 24.9583C3.83801 22.5141 5.02659 19.7303 7.47079 18.7487ZM7.62803 19.1403C5.39534 20.0369 4.3141 22.5686 5.21071 24.8012C6.10732 27.0339 8.6394 28.115 10.8721 27.2184C13.1048 26.3218 14.1838 23.7905 13.2872 21.5578C12.3906 19.3252 9.86071 18.2437 7.62803 19.1403ZM6.57634 21.6294C6.82988 21.5276 7.11297 21.5293 7.36336 21.6343C7.61375 21.7392 7.81092 21.9388 7.91153 22.1891C7.96133 22.3131 7.98591 22.4458 7.98386 22.5796C7.98181 22.7134 7.95317 22.8458 7.89958 22.9691C7.84599 23.0925 7.7685 23.2043 7.67153 23.2984C7.57456 23.3924 7.46002 23.4668 7.33444 23.5172C7.20886 23.5676 7.0747 23.5931 6.93963 23.5923C6.80456 23.5914 6.67121 23.5642 6.54721 23.5122C6.42321 23.4602 6.31098 23.3844 6.21693 23.2892C6.12288 23.1939 6.04886 23.0811 5.99908 22.9571C5.89864 22.7067 5.90303 22.4262 6.01128 22.1773C6.11953 21.9283 6.32278 21.7312 6.57634 21.6294ZM10.1084 20.211C10.3619 20.1092 10.645 20.1109 10.8954 20.2159C11.1458 20.3208 11.343 20.5204 11.4436 20.7707C11.4934 20.8946 11.5179 21.0273 11.5159 21.1612C11.5138 21.295 11.4852 21.4274 11.4316 21.5507C11.378 21.674 11.3005 21.7859 11.2036 21.88C11.1066 21.974 10.992 22.0483 10.8665 22.0988C10.7409 22.1492 10.6067 22.1747 10.4717 22.1739C10.3366 22.173 10.2032 22.1458 10.0792 22.0938C9.95524 22.0418 9.84301 21.966 9.74896 21.8708C9.65491 21.7755 9.58089 21.6627 9.53111 21.5387C9.43067 21.2883 9.43506 21.0078 9.54331 20.7589C9.65156 20.5099 9.85481 20.3128 10.1084 20.211ZM8.40042 21.066L8.77754 21.3617L9.16633 22.8586C9.18735 22.8532 9.20959 22.85 9.23245 22.8489C9.44524 22.8389 9.61437 23.0324 9.57456 23.24C9.54856 23.3755 9.43782 23.4849 9.30571 23.5062C9.22067 23.5199 9.13511 23.4999 9.06588 23.4541L7.58274 25.6303L7.02089 26.0255L7.27086 25.3859L9.03145 23.428C9.00453 23.4047 8.98138 23.377 8.9631 23.3455C8.86626 23.179 8.93568 22.9764 9.08802 22.8905L8.33259 21.5404L8.40042 21.066ZM9.83419 24.6351C9.95976 24.5846 10.0939 24.5591 10.229 24.56C10.3641 24.5608 10.4974 24.588 10.6214 24.64C10.7454 24.692 10.8576 24.7678 10.9517 24.8631C11.0457 24.9583 11.1198 25.0712 11.1695 25.1951C11.27 25.4455 11.2656 25.726 11.1573 25.975C11.0491 26.224 10.8458 26.421 10.5923 26.5228C10.3387 26.6247 10.0556 26.6229 9.80526 26.518C9.55487 26.413 9.3577 26.2134 9.2571 25.9632C9.20729 25.8392 9.18272 25.7065 9.18477 25.5726C9.18682 25.4388 9.21545 25.3064 9.26904 25.1831C9.32263 25.0598 9.40012 24.9479 9.49709 24.8539C9.59406 24.7598 9.7086 24.6855 9.83419 24.6351Z" fill="white" fill-opacity="0.9"/>
<path d="M2.75803 14.408L4.61632 19.0354L9.72952 16.9821L7.87122 12.3547L2.75803 14.408ZM8.76939 29.3771L10.6275 34.0041L15.7407 31.9507L13.8826 27.3237L8.76939 29.3771Z" fill="white" fill-opacity="0.9"/>
<path d="M48.7686 18.3543L49.5095 18.9468C50.453 23.6954 49.3407 27.0312 44.8469 30.5574L43.9099 30.4531L44.614 28.6996C43.6567 28.8304 42.6819 28.71 41.7851 28.3503C40.8889 27.9899 40.1017 27.4026 39.5008 26.6462L38.7967 28.3997L38.0478 27.8269C37.8912 26.7295 37.8221 25.7257 37.8407 24.7996L37.3096 24.8752L37.1294 23.6116L37.9311 23.4972C37.9882 23.0325 38.0712 22.5887 38.1811 22.1635L37.4963 21.8885L38.2128 20.1042L38.8572 20.363C39.0747 19.9334 39.3267 19.5228 39.6146 19.1284L39.1617 18.551L40.1658 17.763L40.4514 18.1266C41.0866 17.4558 41.8392 16.8265 42.7104 16.2164L43.6554 16.3009L43.1102 17.6584C44.0673 17.528 45.0418 17.6488 45.9382 18.0087C46.8347 18.3691 47.622 18.9564 48.2229 19.713L48.7686 18.3543ZM45.6405 18.7487C43.1963 17.7672 40.4141 18.9564 39.4326 21.4006C38.451 23.8448 39.638 26.628 42.0822 27.6095C44.5264 28.5911 47.3102 27.4025 48.2918 24.9583C49.2733 22.5141 48.0847 19.7303 45.6405 18.7487ZM45.4833 19.1403C47.716 20.0369 48.7972 22.5686 47.9006 24.8012C47.004 27.0339 44.4719 28.115 42.2392 27.2184C40.0066 26.3218 38.9275 23.7905 39.8241 21.5578C40.7207 19.3252 43.2506 18.2437 45.4833 19.1403ZM46.535 21.6294C46.2814 21.5276 45.9984 21.5293 45.748 21.6343C45.4976 21.7392 45.3004 21.9388 45.1998 22.1891C45.15 22.3131 45.1254 22.4458 45.1275 22.5796C45.1295 22.7134 45.1582 22.8458 45.2117 22.9691C45.2653 23.0925 45.3428 23.2043 45.4398 23.2984C45.5368 23.3924 45.6513 23.4668 45.7769 23.5172C45.9025 23.5676 46.0366 23.5931 46.1717 23.5923C46.3068 23.5914 46.4401 23.5642 46.5641 23.5122C46.6881 23.4602 46.8003 23.3844 46.8944 23.2892C46.9884 23.1939 47.0625 23.0811 47.1122 22.9571C47.2127 22.7067 47.2083 22.4262 47.1 22.1773C46.9918 21.9283 46.7885 21.7312 46.535 21.6294ZM43.003 20.211C42.7494 20.1092 42.4663 20.1109 42.2159 20.2159C41.9656 20.3208 41.7684 20.5204 41.6678 20.7707C41.618 20.8946 41.5934 21.0273 41.5954 21.1612C41.5975 21.295 41.6261 21.4274 41.6797 21.5507C41.7333 21.674 41.8108 21.7859 41.9078 21.88C42.0047 21.974 42.1193 22.0483 42.2449 22.0988C42.3704 22.1492 42.5046 22.1747 42.6397 22.1739C42.7747 22.173 42.9081 22.1458 43.0321 22.0938C43.1561 22.0418 43.2683 21.966 43.3624 21.8708C43.4564 21.7755 43.5304 21.6627 43.5802 21.5387C43.6807 21.2883 43.6763 21.0078 43.568 20.7589C43.4598 20.5099 43.2565 20.3128 43.003 20.211ZM44.7109 21.066L44.3338 21.3617L43.945 22.8586C43.924 22.8532 43.9017 22.85 43.8789 22.8489C43.6661 22.8389 43.497 23.0324 43.5368 23.24C43.5628 23.3755 43.6735 23.4849 43.8056 23.5062C43.8907 23.5199 43.9762 23.4999 44.0454 23.4541L45.5286 25.6303L46.0904 26.0255L45.8405 25.3859L44.0799 23.428C44.1068 23.4047 44.1299 23.377 44.1482 23.3455C44.2451 23.179 44.1757 22.9764 44.0233 22.8905L44.7787 21.5404L44.7109 21.066ZM43.2771 24.6351C43.1516 24.5846 43.0174 24.5591 42.8823 24.56C42.7473 24.5608 42.6139 24.588 42.4899 24.64C42.3659 24.692 42.2537 24.7678 42.1596 24.8631C42.0656 24.9583 41.9916 25.0712 41.9418 25.1951C41.8413 25.4455 41.8457 25.726 41.954 25.975C42.0622 26.224 42.2655 26.421 42.519 26.5228C42.7726 26.6247 43.0557 26.6229 43.3061 26.518C43.5565 26.413 43.7536 26.2134 43.8542 25.9632C43.904 25.8392 43.9286 25.7065 43.9266 25.5726C43.9245 25.4388 43.8959 25.3064 43.8423 25.1831C43.7887 25.0598 43.7112 24.9479 43.6142 24.8539C43.5173 24.7598 43.4027 24.6855 43.2771 24.6351Z" fill="white" fill-opacity="0.9"/>
<path d="M50.3533 14.408L48.495 19.0354L43.3818 16.9821L45.2401 12.3547L50.3533 14.408ZM44.3419 29.3771L42.4838 34.0041L37.3706 31.9507L39.2287 27.3237L44.3419 29.3771Z" fill="white" fill-opacity="0.9"/>
</svg>
