<svg width="44" height="31" viewBox="0 0 44 31" fill="none" xmlns="http://www.w3.org/2000/svg">
<path d="M34.6591 10C33.7968 10 33.0808 10.6916 33.0808 11.5499C33.0808 12.2483 33.5622 12.8187 34.2041 13.0144V13.1353L33.031 14.0168L32.5973 13.4907C32.5094 13.3808 32.3683 13.3157 32.2276 13.3201L30.9053 13.3699C30.8333 13.3722 30.762 13.3918 30.6991 13.4267L26.2273 15.8653C26.0121 15.9852 25.9325 16.2967 26.0638 16.5051L28.161 19.8394C28.2804 20.0289 28.5513 20.1039 28.7511 20.003L29.0071 19.875V28.9964C29.0039 29.1987 29.1524 29.3937 29.3483 29.4442C32.5007 30.22 36.8174 30.22 39.9698 29.4442C40.1683 29.3964 40.3207 29.2006 40.3182 28.9964V19.875L40.567 20.003C40.7682 20.108 41.0445 20.0323 41.1642 19.8394L43.2615 16.5051C43.3916 16.2949 43.3083 15.9828 43.0908 15.8653L38.619 13.4267C38.5582 13.3929 38.4895 13.3733 38.4199 13.3699L37.0976 13.3201C36.957 13.3157 36.8158 13.3808 36.7279 13.4907L36.2942 14.0168L35.1141 13.1281V12.6518C35.1141 12.4136 34.8973 12.1968 34.6591 12.1968C34.2768 12.1968 33.9908 11.9041 33.9908 11.5499C33.9908 11.1956 34.2768 10.91 34.6591 10.91C35.0413 10.91 35.3344 11.1956 35.3344 11.5499C35.3344 11.677 35.2938 11.7901 35.2278 11.8911C35.0975 12.0921 35.1619 12.3936 35.3629 12.5238C35.5639 12.6541 35.8653 12.5898 35.9956 12.3888C36.153 12.1478 36.2444 11.8558 36.2444 11.5499C36.2444 10.6916 35.5213 10 34.6591 10ZM34.6591 13.9244L35.7184 14.7207L34.6591 16.0146L33.6069 14.7207L34.6591 13.9244Z" fill="white"/>
<path d="M8.65905 10C7.79685 10 7.08076 10.6916 7.08076 11.5499C7.08076 12.2483 7.56216 12.8187 8.20405 13.0144V13.1353L7.03099 14.0168L6.59732 13.4907C6.50944 13.3808 6.36827 13.3157 6.22763 13.3201L4.90528 13.3699C4.83335 13.3722 4.76202 13.3918 4.6991 13.4267L0.227283 15.8653C0.0121119 15.9852 -0.067491 16.2967 0.0637546 16.5051L2.16104 19.8394C2.28041 20.0289 2.5513 20.1039 2.75114 20.003L3.00708 19.875V28.9964C3.00389 29.1987 3.15238 29.3937 3.34833 29.4442C6.50068 30.22 10.8174 30.22 13.9698 29.4442C14.1683 29.3964 14.3207 29.2006 14.3182 28.9964V19.875L14.567 20.003C14.7682 20.108 15.0445 20.0323 15.1642 19.8394L17.2615 16.5051C17.3916 16.2949 17.3083 15.9828 17.0908 15.8653L12.619 13.4267C12.5582 13.3929 12.4895 13.3733 12.4199 13.3699L11.0976 13.3201C10.957 13.3157 10.8158 13.3808 10.7279 13.4907L10.2942 14.0168L9.11406 13.1281V12.6518C9.11406 12.4136 8.89729 12.1968 8.65905 12.1968C8.27678 12.1968 7.99077 11.9041 7.99077 11.5499C7.99077 11.1956 8.27678 10.91 8.65905 10.91C9.04133 10.91 9.33444 11.1956 9.33444 11.5499C9.33444 11.677 9.29376 11.7901 9.22781 11.8911C9.09752 12.0921 9.16188 12.3936 9.36288 12.5238C9.56387 12.6541 9.86534 12.5898 9.99563 12.3888C10.153 12.1478 10.2444 11.8558 10.2444 11.5499C10.2444 10.6916 9.52126 10 8.65905 10ZM8.65905 13.9244L9.71837 14.7207L8.65905 16.0146L7.60686 14.7207L8.65905 13.9244Z" fill="white"/>
<path d="M21.9829 0C20.6902 0 19.6165 1.03691 19.6165 2.32377C19.6165 3.37097 20.3383 4.22618 21.3007 4.51963V4.70084L19.5419 6.02262L18.8917 5.23382C18.7599 5.06904 18.5483 4.97135 18.3374 4.97799L16.3547 5.05261C16.2469 5.05605 16.1399 5.08556 16.0456 5.13788L9.34078 8.79409C9.01816 8.97391 8.89881 9.44089 9.09559 9.75345L12.2402 14.7528C12.4191 15.0368 12.8253 15.1493 13.1249 14.9979L13.5087 14.8061V28.4822C13.5039 28.7856 13.7265 29.0779 14.0203 29.1537C18.7468 30.3168 25.219 30.3168 29.9456 29.1537C30.2433 29.082 30.4717 28.7884 30.4679 28.4822V14.8061L30.841 14.9979C31.1427 15.1554 31.557 15.042 31.7364 14.7528L34.881 9.75345C35.0761 9.43831 34.9513 8.97024 34.6251 8.79409L27.9203 5.13788C27.8291 5.08712 27.7261 5.05769 27.6218 5.05261L25.6391 4.97799C25.4283 4.97134 25.2167 5.06904 25.0848 5.23382L24.4346 6.02262L22.6652 4.69018V3.976C22.6652 3.61879 22.3402 3.29379 21.9829 3.29379C21.4098 3.29379 20.981 2.85495 20.981 2.32377C20.981 1.7926 21.4098 1.36442 21.9829 1.36442C22.5561 1.36442 22.9956 1.79258 22.9956 2.32377C22.9956 2.51439 22.9346 2.68406 22.8357 2.83543C22.6404 3.13682 22.7369 3.58878 23.0382 3.78412C23.3396 3.97947 23.7916 3.88298 23.9869 3.58159C24.2229 3.22036 24.36 2.78245 24.36 2.32377C24.36 1.03693 23.2757 0 21.9829 0ZM21.9829 5.88405L23.5712 7.07791L21.9829 9.01794L20.4053 7.07791L21.9829 5.88405Z" fill="white"/>
</svg>
