<svg width="97" height="100" viewBox="0 0 97 100" fill="none" xmlns="http://www.w3.org/2000/svg">
<path d="M17 39C17 38.4477 17.4477 38 18 38H78C78.5523 38 79 38.4477 79 39V59C79 59.5523 78.5523 60 78 60H18C17.4477 60 17 59.5523 17 59V39Z" fill="#52CBFF" fill-opacity="0.08"/>
<path d="M31 63C31 62.4477 31.4477 62 32 62H64C64.5523 62 65 62.4477 65 63V65C65 65.5523 64.5523 66 64 66H32C31.4477 66 31 65.5523 31 65V63Z" fill="#52CBFF" fill-opacity="0.02"/>
<path d="M32 32H64C64.5523 32 65 32.4477 65 33V35C65 35.5523 64.5523 36 64 36H32C31.4477 36 31 35.5523 31 35V33C31 32.4477 31.4477 32 32 32Z" fill="#52CBFF" fill-opacity="0.02"/>
<path d="M22.9886 44.3675H25.9063C26.8066 44.3675 27.5902 44.5483 28.2574 44.91C28.9245 45.2717 29.4389 45.7781 29.8006 46.4292C30.1623 47.0802 30.3432 47.8317 30.3432 48.6837C30.3432 49.5357 30.1623 50.2873 29.8006 50.9383C29.4389 51.5894 28.9245 52.0958 28.2574 52.4575C27.5902 52.8192 26.8066 53 25.9063 53H22.9886V44.3675ZM25.834 51.4568C26.7664 51.4568 27.4777 51.2116 27.968 50.7213C28.4583 50.223 28.7035 49.5438 28.7035 48.6837C28.7035 47.8237 28.4583 47.1485 27.968 46.6582C27.4777 46.1599 26.7664 45.9107 25.834 45.9107H24.6163V51.4568H25.834ZM31.8898 44.3675H37.3635V45.9107H33.5174V47.9121H36.9777V49.4554H33.5174V51.4568H37.3635V53H31.8898V44.3675ZM39.0366 44.3675H44.5103V45.9107H40.6643V48.0086H44.1245V49.5518H40.6643V53H39.0366V44.3675ZM47.6532 44.3675H49.5219L52.7652 53H50.9687L50.2453 50.9383H46.9418L46.2184 53H44.422L47.6532 44.3675ZM49.7148 49.4433L48.9553 47.2731L48.6418 46.2362H48.5453L48.2319 47.2731L47.4603 49.4433H49.7148ZM57.008 53.1929C56.3329 53.1929 55.7421 53.0482 55.2357 52.7589C54.7374 52.4695 54.3476 52.0515 54.0662 51.505C53.793 50.9584 53.6563 50.3114 53.6563 49.5639V44.3675H55.2719V49.6603C55.2719 50.2551 55.4206 50.7374 55.718 51.1071C56.0234 51.4688 56.4534 51.6497 57.008 51.6497C57.5627 51.6497 57.9887 51.4688 58.286 51.1071C58.5915 50.7374 58.7442 50.2551 58.7442 49.6603V44.3675H60.3598V49.5639C60.3598 50.2792 60.2231 50.9102 59.9499 51.4568C59.6766 52.0033 59.2867 52.4293 58.7804 52.7348C58.274 53.0402 57.6832 53.1929 57.008 53.1929ZM62.1844 44.3675H63.812V51.4568H67.4652V53H62.1844V44.3675ZM69.6665 45.9107H67.2552V44.3675H73.7055V45.9107H71.2942V53H69.6665V45.9107Z" fill="#52CBFF"/>
</svg>
