<svg width="31" height="32" viewBox="0 0 31 32" fill="none" xmlns="http://www.w3.org/2000/svg">
<path d="M30.0862 16.3839C30.0862 14.618 29.6611 13.3753 28.8108 12.5904C28.6473 12.4596 28.4184 12.2961 28.1568 12.1653C26.9795 1.20999 19.4252 0 15.0431 0C10.6937 0 3.13943 1.20999 1.96214 12.1653C1.70053 12.2961 1.47161 12.4596 1.3081 12.5904C0.425131 13.3753 0 14.618 0 16.3839C0 17.8882 0.392429 18.9674 1.14458 19.6869C0.81756 23.6438 0.850263 26.5544 2.12566 28.2222C3.00862 29.3995 5.4286 28.8762 8.04479 28.4838C8.33912 28.7127 8.63344 28.9416 8.92776 29.1706C10.7264 30.4459 12.8193 31.1 15.0104 31.1C17.2015 31.1 19.3271 30.4459 21.0931 29.1706C21.4201 28.9416 21.7144 28.7127 22.0087 28.4838C24.6249 28.8762 27.0449 29.3995 27.9279 28.2222C29.2033 26.5871 29.236 23.6438 28.9089 19.6869C29.6938 18.9674 30.0862 17.8882 30.0862 16.3839ZM26.4236 18.3788C25.7368 18.4442 25.2136 18.9674 25.1482 19.6542C24.8538 22.4666 23.0879 25.0501 19.8504 27.3065C17.0053 29.3014 13.0483 29.3014 10.2032 27.3065C6.99832 25.0501 5.23239 22.4666 4.93807 19.6542C4.87266 18.9674 4.34942 18.4442 3.66267 18.3788C2.84511 18.2807 2.22376 18.2479 2.22376 16.3839C2.22376 14.945 2.55079 14.4218 2.747 14.2256C2.77971 14.1928 2.84511 14.1274 2.97592 14.0947C3.07403 14.5199 3.40105 14.8796 3.85889 14.945C4.44753 15.0431 5.03617 14.6507 5.13428 14.0293C5.59211 11.4131 6.11535 9.451 6.93291 8.01209L7.55426 10.661C7.65237 11.0861 8.04479 11.4131 8.50263 11.4131H21.5836C22.0414 11.4131 22.4339 11.0861 22.532 10.661L23.1533 8.01209C23.9709 9.451 24.4941 11.4131 24.9519 14.0293C25.0501 14.5526 25.5079 14.945 26.0311 14.945C26.0965 14.945 26.1619 14.945 26.2273 14.945C26.6852 14.8796 27.0122 14.5199 27.1103 14.0947C27.2411 14.1274 27.3065 14.1928 27.3392 14.2256C27.5354 14.4218 27.8625 14.9123 27.8625 16.3839C27.8625 18.2152 27.2411 18.2807 26.4236 18.3788Z" fill="white" fill-opacity="0.9"/>
</svg>
