<svg width="34" height="32" viewBox="0 0 34 32" fill="none" xmlns="http://www.w3.org/2000/svg">
<path d="M32.0862 16.3839C32.0862 14.618 31.6611 13.3753 30.8108 12.5904C30.6473 12.4596 30.4184 12.2961 30.1568 12.1653C28.9795 1.20999 21.4252 0 17.0431 0C12.6937 0 5.13943 1.20999 3.96214 12.1653C3.70053 12.2961 3.47161 12.4596 3.3081 12.5904C2.42513 13.3753 2 14.618 2 16.3839C2 17.8882 2.39243 18.9674 3.14458 19.6869C2.81756 23.6438 2.85026 26.5544 4.12566 28.2222C5.00862 29.3995 7.4286 28.8762 10.0448 28.4838C10.3391 28.7127 10.6334 28.9416 10.9278 29.1706C12.7264 30.4459 14.8193 31.1 17.0104 31.1C19.2015 31.1 21.3271 30.4459 23.0931 29.1706C23.4201 28.9416 23.7144 28.7127 24.0087 28.4838C26.6249 28.8762 29.0449 29.3995 29.9279 28.2222C31.2033 26.5871 31.236 23.6438 30.9089 19.6869C31.6938 18.9674 32.0862 17.8882 32.0862 16.3839ZM28.4236 18.3788C27.7368 18.4442 27.2136 18.9674 27.1482 19.6542C26.8538 22.4666 25.0879 25.05 21.8504 27.3065C19.0053 29.3014 15.0483 29.3014 12.2032 27.3065C8.99832 25.05 7.23239 22.4666 6.93807 19.6542C6.87266 18.9674 6.34942 18.4442 5.66267 18.3788C4.84511 18.2807 4.22376 18.2479 4.22376 16.3839C4.22376 14.945 4.55079 14.4218 4.747 14.2256C4.77971 14.1928 4.84511 14.1274 4.97592 14.0947C5.07403 14.5199 5.40105 14.8796 5.85889 14.945C6.44753 15.0431 7.03617 14.6507 7.13428 14.0293C7.59211 11.4131 8.11535 9.451 8.93291 8.01209L9.55426 10.661C9.65237 11.0861 10.0448 11.4131 10.5026 11.4131H23.5836C24.0414 11.4131 24.4339 11.0861 24.532 10.661L25.1533 8.01209C25.9709 9.451 26.4941 11.4131 26.9519 14.0293C27.0501 14.5526 27.5079 14.945 28.0311 14.945C28.0965 14.945 28.1619 14.945 28.2273 14.945C28.6852 14.8796 29.0122 14.5199 29.1103 14.0947C29.2411 14.1274 29.3065 14.1928 29.3392 14.2256C29.5354 14.4218 29.8625 14.9123 29.8625 16.3839C29.8625 18.2152 29.2411 18.2807 28.4236 18.3788Z" fill="white" fill-opacity="0.9"/>
<path d="M0 16C0 14.8954 0.895431 14 2 14H32C33.1046 14 34 14.8954 34 16C34 17.1046 33.1046 18 32 18H2C0.89543 18 0 17.1046 0 16Z" fill="white" fill-opacity="0.9"/>
</svg>
