<svg width="31" height="29" viewBox="0 0 31 29" fill="none" xmlns="http://www.w3.org/2000/svg">
<path d="M30.0862 16.3839C30.0862 14.618 29.6611 13.3753 28.8108 12.5904C28.6473 12.4596 28.4184 12.2961 28.1568 12.1653C26.9795 1.20999 19.4252 0 15.0431 0C10.6937 0 3.13943 1.20999 1.96214 12.1653C1.70053 12.2961 1.47161 12.4596 1.3081 12.5904C0.425131 13.3753 0 14.618 0 16.3839C0 17.8882 0.392429 18.9674 1.14458 19.6869C0.81756 23.6439 0.850263 26.5544 2.12566 28.2222C2.78097 29.0959 4.28289 29.033 6.08331 28.782C7.2126 28.6246 8.04479 27.6403 8.04479 26.5001C8.04479 25.8797 7.78674 25.2924 7.37477 24.8286C5.94491 23.2188 5.12966 21.485 4.93807 19.6542C4.87266 18.9674 4.34942 18.4442 3.66267 18.3788C2.84511 18.2807 2.22376 18.2479 2.22376 16.3839C2.22376 14.945 2.55079 14.4218 2.747 14.2256C2.77971 14.1929 2.84511 14.1274 2.97592 14.0947C3.07403 14.5199 3.40105 14.8796 3.85889 14.945C4.44753 15.0431 5.03617 14.6507 5.13428 14.0293C5.59211 11.4131 6.11535 9.451 6.93291 8.01209L7.55426 10.661C7.65237 11.0861 8.04479 11.4131 8.50263 11.4131H21.5836C22.0414 11.4131 22.4339 11.0861 22.532 10.661L23.1533 8.01209C23.9709 9.451 24.4941 11.4131 24.9519 14.0293C25.0501 14.5526 25.5079 14.945 26.0311 14.945H26.2273C26.6852 14.8796 27.0122 14.5199 27.1103 14.0947C27.2411 14.1274 27.3065 14.1929 27.3392 14.2256C27.5354 14.4218 27.8625 14.9123 27.8625 16.3839C27.8625 18.2062 27.2473 18.28 26.4357 18.3773L26.4236 18.3788C25.7368 18.4442 25.2136 18.9674 25.1482 19.6542C24.9554 21.4964 24.1311 23.2404 22.6755 24.8587C22.2604 25.3201 22.001 25.9078 22.0029 26.5285C22.0063 27.6532 22.8281 28.6219 23.942 28.7781C25.7549 29.0323 27.2691 29.1005 27.9279 28.2222C29.2033 26.5871 29.236 23.6439 28.9089 19.6869C29.6938 18.9674 30.0862 17.8882 30.0862 16.3839Z" fill="white" fill-opacity="0.9"/>
</svg>
