<svg width="11" height="12" viewBox="0 0 11 12" fill="none" xmlns="http://www.w3.org/2000/svg">
<path fill-rule="evenodd" clip-rule="evenodd" d="M6.37021 0.910705C5.8226 0.363098 4.93476 0.363098 4.38715 0.910706L0.410705 4.88715C-0.136902 5.43476 -0.136902 6.3226 0.410706 6.87021L4.38715 10.8467C4.93476 11.3943 5.8226 11.3943 6.37021 10.8467L10.3467 6.87021C10.8943 6.3226 10.8943 5.43476 10.3467 4.88715L6.37021 0.910705ZM8.59325 5.2371L6.02026 2.66411C5.66592 2.30977 5.09143 2.30977 4.7371 2.66411L2.16411 5.2371C1.80977 5.59143 1.80977 6.16592 2.16411 6.52026L4.7371 9.09325C5.09144 9.44759 5.66593 9.44758 6.02026 9.09325L8.59325 6.52026C8.94759 6.16592 8.94759 5.59143 8.59325 5.2371Z" fill="white" fill-opacity="0.21"/>
<path d="M6.02026 2.66411L8.59325 5.2371C8.94759 5.59143 8.94759 6.16592 8.59325 6.52026L6.02026 9.09325C5.66593 9.44758 5.09144 9.44759 4.7371 9.09325L2.16411 6.52026C1.80977 6.16592 1.80977 5.59143 2.16411 5.2371L4.7371 2.66411C5.09143 2.30977 5.66592 2.30977 6.02026 2.66411Z" fill="white"/>
</svg>
