<svg width="32" height="30" viewBox="0 0 32 30" fill="none" xmlns="http://www.w3.org/2000/svg">
<path d="M5.71438 7.6743C5.71438 7.08573 5.41152 6.53144 4.90867 6.22287L2.01724 4.41715C1.63438 4.17715 1.14295 4.45144 1.14295 4.90287V13.72H5.71438V7.6743Z" fill="white" fill-opacity="0.9"/>
<path d="M6.28589 15.4286C6.28589 15.1143 6.02874 14.8571 5.71446 14.8571H1.14303C0.828745 14.8571 0.571602 15.1143 0.571602 15.4286V18.2857H6.28589V15.4286Z" fill="white" fill-opacity="0.9"/>
<path d="M0 28.5714C0 29.2 0.514286 29.7143 1.14286 29.7143H5.71429C6.34286 29.7143 6.85714 29.2 6.85714 28.5714V19.4286H0V28.5714Z" fill="white" fill-opacity="0.9"/>
<path d="M9.83448 12H13.023L13.143 7.42857H9.71448L9.83448 12Z" fill="white" fill-opacity="0.9"/>
<path d="M32.0001 18.8572C32.0001 14.44 28.4172 10.8572 24.0001 10.8572C19.583 10.8572 16.0001 14.44 16.0001 18.8572C16.0001 22.2286 18.0915 25.1086 21.0401 26.2857H16.0001V27.4286C16.0001 28.6914 17.023 29.7143 18.2858 29.7143H29.7144C30.9772 29.7143 32.0001 28.6914 32.0001 27.4286V26.2857H26.9601C29.9144 25.1086 32.0001 22.2286 32.0001 18.8572ZM18.2858 18.8572C18.2858 15.7086 20.8515 13.1429 24.0001 13.1429C27.1487 13.1429 29.7144 15.7086 29.7144 18.8572C29.7144 22.0057 27.1487 24.5714 24.0001 24.5714C20.8515 24.5714 18.2858 22.0057 18.2858 18.8572Z" fill="white" fill-opacity="0.9"/>
<path d="M10.2859 29.7143H12.5716L12.9945 13.1429H9.86307L10.2859 29.7143Z" fill="white" fill-opacity="0.9"/>
<path d="M15.5144 1.03429C14.2402 0.348571 12.8344 0 11.4287 0C10.023 0 8.6173 0.342857 7.34302 1.03429C6.78873 1.33714 6.60587 2.05143 6.92016 2.6L9.05159 6.28571H13.8002L15.9316 2.6C16.2459 2.05143 16.0687 1.33714 15.5087 1.03429H15.5144Z" fill="white" fill-opacity="0.9"/>
</svg>
