<svg width="25" height="31" viewBox="0 0 25 31" fill="none" xmlns="http://www.w3.org/2000/svg">
<path d="M12.0272 7.33047C11.3023 7.33047 10.5937 7.11551 9.99094 6.71277C9.3882 6.31003 8.91841 5.7376 8.641 5.06786C8.36359 4.39813 8.291 3.66117 8.43243 2.95019C8.57385 2.2392 8.92293 1.58612 9.43552 1.07352C9.94811 0.560932 10.6012 0.211852 11.3122 0.0704282C12.0232 -0.0709958 12.7601 0.00158802 13.4299 0.279001C14.0996 0.556414 14.672 1.0262 15.0748 1.62894C15.4775 2.23169 15.6925 2.94032 15.6925 3.66524C15.6925 4.14656 15.5977 4.62318 15.4135 5.06786C15.2293 5.51255 14.9593 5.9166 14.6189 6.25695C14.2786 6.5973 13.8745 6.86728 13.4299 7.05147C12.9852 7.23567 12.5086 7.33047 12.0272 7.33047ZM23.9151 8.48792C23.6975 8.02211 23.311 7.65632 22.834 7.46449C22.357 7.27265 21.8249 7.26908 21.3453 7.45448L16.4159 9.4869C15.6287 9.77351 14.7975 9.9204 13.9598 9.92094H10.0947C9.25698 9.9204 8.42578 9.77351 7.6386 9.4869L2.72636 7.46137C2.24679 7.27597 1.71472 7.27954 1.23768 7.47138C0.760653 7.66321 0.374242 8.029 0.156556 8.49481C0.0525285 8.73874 -0.000736507 9.0013 7.69185e-06 9.26648C0.00075189 9.53167 0.0554896 9.79393 0.160885 10.0373C0.26628 10.2806 0.420125 10.4999 0.613042 10.6819C0.80596 10.8639 1.03391 11.0046 1.283 11.0956L6.03333 13.0626C6.41216 13.2005 6.73935 13.4517 6.97046 13.782C7.20158 14.1123 7.3254 14.5058 7.32512 14.909V18.4536C7.32656 18.6887 7.28573 18.922 7.20456 19.1426L2.72636 28.2781C2.5401 28.7576 2.54325 29.29 2.73518 29.7673C2.9271 30.2445 3.29342 30.6309 3.75979 30.8479C4.00372 30.952 4.26628 31.0052 4.53146 31.0045C4.79665 31.0037 5.05891 30.949 5.30225 30.8436C5.54559 30.7382 5.76493 30.5844 5.94688 30.3914C6.12883 30.1985 6.2696 29.9706 6.36059 29.7215L10.1843 22.3497C10.323 21.9723 10.574 21.6465 10.9035 21.4162C11.233 21.1858 11.6252 21.062 12.0272 21.0613C12.4293 21.062 12.8215 21.1858 13.151 21.4162C13.4805 21.6465 13.7315 21.9723 13.8702 22.3497L17.6801 29.6147C17.8468 30.1006 18.1915 30.5052 18.6448 30.7469C19.0981 30.9885 19.6261 31.0493 20.1224 30.9168C20.3763 30.8394 20.6116 30.711 20.8141 30.5394C21.0166 30.3679 21.1819 30.1568 21.2999 29.9191C21.4179 29.6814 21.4862 29.4221 21.5005 29.1572C21.5149 28.8922 21.475 28.627 21.3832 28.378L16.8499 19.1254C16.7687 18.9048 16.7279 18.6714 16.7293 18.4364V14.909C16.7291 14.5058 16.8529 14.1123 17.084 13.782C17.3151 13.4517 17.6423 13.2005 18.0211 13.0626L22.7887 11.0887C23.0378 10.9977 23.2657 10.857 23.4587 10.675C23.6516 10.4931 23.8054 10.2737 23.9108 10.0304C24.0162 9.78704 24.0709 9.52478 24.0717 9.25959C24.0724 8.99441 24.0192 8.73185 23.9151 8.48792Z" fill="white" fill-opacity="0.9"/>
</svg>
