<svg width="34" height="31" viewBox="0 0 34 31" fill="none" xmlns="http://www.w3.org/2000/svg">
<path fill-rule="evenodd" clip-rule="evenodd" d="M16.7176 0C12.0456 0 8.23166 3.81398 8.23166 8.48596C8.23166 10.497 8.94049 12.3467 10.1181 13.8041C9.72275 13.7471 9.32237 13.7065 8.91174 13.7065C4.23976 13.7065 0.425783 17.5255 0.425781 22.1975C0.425783 26.8695 4.23976 30.6835 8.91174 30.6835C12.433 30.6835 15.4642 28.5154 16.7451 25.4479C18.0259 28.5156 21.0584 30.6835 24.5798 30.6835C29.2517 30.6835 33.0657 26.8695 33.0657 22.1975C33.0657 17.5255 29.2517 13.7065 24.5798 13.7065C24.1481 13.7065 23.7268 13.7499 23.3121 13.8128C24.4948 12.3542 25.2073 10.5009 25.2073 8.48596C25.2073 3.81398 21.3896 0 16.7176 0ZM16.7176 2.60779C19.9782 2.60779 22.5945 5.22535 22.5945 8.48596C22.5945 11.7466 19.9782 14.3591 16.7176 14.3591C13.457 14.3591 10.8445 11.7466 10.8445 8.48596C10.8445 5.22535 13.457 2.60779 16.7176 2.60779ZM9.20802 16.3343C11.1682 16.4312 12.8636 17.4713 13.8548 19.0184L9.20802 16.3343ZM17.9903 16.8657C17.4821 17.4927 17.0601 18.1912 16.7451 18.9459C16.4318 18.1953 16.0133 17.5001 15.5087 16.8757C15.9045 16.9327 16.3066 16.9719 16.7176 16.9719C17.1513 16.9719 17.5737 16.929 17.9903 16.8657ZM5.65387 17.2982L14.7674 22.5613C14.7388 23.0351 14.6603 23.4942 14.5274 23.9302L4.6025 18.1983C4.91686 17.8595 5.26725 17.5549 5.65387 17.2982ZM3.29235 20.4611L13.2197 26.1917C12.9058 26.5305 12.5559 26.8352 12.1696 27.0918L3.05233 21.8262C3.08153 21.3537 3.15922 20.8961 3.29235 20.4611ZM3.96118 25.3691L8.61421 28.0557C6.65165 27.9587 4.953 26.918 3.96118 25.3691Z" fill="white" fill-opacity="0.9"/>
</svg>
