<svg width="97" height="100" viewBox="0 0 97 100" fill="none" xmlns="http://www.w3.org/2000/svg">
<path d="M17 39C17 38.4477 17.4477 38 18 38H78C78.5523 38 79 38.4477 79 39V59C79 59.5523 78.5523 60 78 60H18C17.4477 60 17 59.5523 17 59V39Z" fill="#52CBFF" fill-opacity="0.08"/>
<path d="M31 63C31 62.4477 31.4477 62 32 62H64C64.5523 62 65 62.4477 65 63V65C65 65.5523 64.5523 66 64 66H32C31.4477 66 31 65.5523 31 65V63Z" fill="#52CBFF" fill-opacity="0.02"/>
<path d="M32 32H64C64.5523 32 65 32.4477 65 33V35C65 35.5523 64.5523 36 64 36H32C31.4477 36 31 35.5523 31 35V33C31 32.4477 31.4477 32 32 32Z" fill="#52CBFF" fill-opacity="0.02"/>
<path d="M27.4035 54H25.5785V46.912H23.2414V45.3932H29.7406V46.912H27.4035V54ZM36.3341 54L35.7101 51.9513H32.5723L31.9483 54H29.982L33.0197 45.3579H35.2509L38.3003 54H36.3341ZM35.2744 50.4207L34.6504 48.4191C34.6112 48.2857 34.5582 48.1149 34.4915 47.9069C34.4287 47.695 34.3639 47.4811 34.2972 47.2653C34.2344 47.0455 34.1834 46.8551 34.1441 46.6942C34.1049 46.8551 34.0499 47.0553 33.9793 47.2947C33.9126 47.5302 33.8478 47.7539 33.785 47.9658C33.7222 48.1777 33.6771 48.3288 33.6496 48.4191L33.0315 50.4207H35.2744ZM42.7097 54H40.8847V46.912H38.5476V45.3932H45.0469V46.912H42.7097V54ZM49.6917 54H47.8667V46.912H45.5296V45.3932H52.0289V46.912H49.6917V54ZM61.1655 49.6848C61.1655 50.3481 61.0831 50.9525 60.9183 51.498C60.7534 52.0396 60.5022 52.5067 60.1647 52.8991C59.8311 53.2916 59.4073 53.5938 58.8931 53.8057C58.379 54.0137 57.7707 54.1177 57.0681 54.1177C56.3656 54.1177 55.7573 54.0137 55.2432 53.8057C54.729 53.5938 54.3032 53.2916 53.9657 52.8991C53.6321 52.5067 53.3829 52.0377 53.218 51.4921C53.0532 50.9466 52.9708 50.3402 52.9708 49.673C52.9708 48.7821 53.116 48.007 53.4064 47.3477C53.7008 46.6844 54.1521 46.1703 54.7604 45.8053C55.3688 45.4403 56.1419 45.2578 57.0799 45.2578C58.014 45.2578 58.7813 45.4403 59.3817 45.8053C59.9861 46.1703 60.4336 46.6844 60.724 47.3477C61.0183 48.0109 61.1655 48.79 61.1655 49.6848ZM54.8841 49.6848C54.8841 50.2853 54.9586 50.8034 55.1078 51.239C55.2608 51.6707 55.4983 52.0043 55.8201 52.2398C56.1419 52.4713 56.5579 52.5871 57.0681 52.5871C57.5862 52.5871 58.0061 52.4713 58.328 52.2398C58.6498 52.0043 58.8833 51.6707 59.0285 51.239C59.1777 50.8034 59.2522 50.2853 59.2522 49.6848C59.2522 48.7821 59.0835 48.0718 58.7459 47.5537C58.4084 47.0357 57.8531 46.7766 57.0799 46.7766C56.5658 46.7766 56.1459 46.8944 55.8201 47.1299C55.4983 47.3614 55.2608 47.695 55.1078 48.1306C54.9586 48.5624 54.8841 49.0804 54.8841 49.6848ZM70.7613 49.6848C70.7613 50.3481 70.6789 50.9525 70.5141 51.498C70.3493 52.0396 70.0981 52.5067 69.7606 52.8991C69.427 53.2916 69.0031 53.5938 68.489 53.8057C67.9748 54.0137 67.3665 54.1177 66.664 54.1177C65.9615 54.1177 65.3531 54.0137 64.839 53.8057C64.3249 53.5938 63.899 53.2916 63.5615 52.8991C63.2279 52.5067 62.9787 52.0377 62.8139 51.4921C62.649 50.9466 62.5666 50.3402 62.5666 49.673C62.5666 48.7821 62.7118 48.007 63.0023 47.3477C63.2966 46.6844 63.7479 46.1703 64.3563 45.8053C64.9646 45.4403 65.7378 45.2578 66.6758 45.2578C67.6098 45.2578 68.3771 45.4403 68.9776 45.8053C69.582 46.1703 70.0294 46.6844 70.3198 47.3477C70.6142 48.0109 70.7613 48.79 70.7613 49.6848ZM64.4799 49.6848C64.4799 50.2853 64.5545 50.8034 64.7036 51.239C64.8567 51.6707 65.0941 52.0043 65.4159 52.2398C65.7378 52.4713 66.1538 52.5871 66.664 52.5871C67.182 52.5871 67.602 52.4713 67.9238 52.2398C68.2456 52.0043 68.4791 51.6707 68.6244 51.239C68.7735 50.8034 68.8481 50.2853 68.8481 49.6848C68.8481 48.7821 68.6793 48.0718 68.3418 47.5537C68.0043 47.0357 67.4489 46.7766 66.6758 46.7766C66.1616 46.7766 65.7417 46.8944 65.4159 47.1299C65.0941 47.3614 64.8567 47.695 64.7036 48.1306C64.5545 48.5624 64.4799 49.0804 64.4799 49.6848Z" fill="#52CBFF"/>
</svg>
