<svg width="97" height="100" viewBox="0 0 97 100" fill="none" xmlns="http://www.w3.org/2000/svg">
<path d="M48.5958 62.6323L53.5724 67.5967C54.3907 68.4245 55.3658 69.0811 56.4406 69.5281C57.5154 69.975 58.6684 70.2035 59.8324 70.2001H65.814C67.0773 70.2018 68.3127 69.8284 69.3637 69.1274C70.4146 68.4263 71.2338 67.4291 71.7175 66.262C72.2012 65.095 72.3276 63.8106 72.0807 62.5716C71.8337 61.3327 71.2246 60.1949 70.3304 59.3025L61.128 50.1001H48.5958V62.6323Z" fill="#52CBFF" fill-opacity="0.5"/>
<path d="M71.7229 33.9474C71.2417 32.7768 70.4226 31.7761 69.3701 31.0731C68.3177 30.37 67.0797 29.9965 65.814 30.0001H59.8324C58.6684 29.9967 57.5154 30.2251 56.4406 30.6721C55.3658 31.119 54.3907 31.7756 53.5724 32.6034L48.5958 37.5678V50.1001H61.128L70.391 40.8977C71.2782 40.0025 71.8787 38.8633 72.1159 37.6255C72.3531 36.3876 72.2163 35.1072 71.7229 33.9474Z" fill="#52CBFF" fill-opacity="0.7"/>
<path d="M48.5958 37.5678L43.6314 32.6034C42.8116 31.7741 41.8346 31.1167 40.7576 30.6697C39.6806 30.2227 38.5253 29.9951 37.3592 30.0001H31.3776C30.1153 30.0008 28.8816 30.3758 27.8325 31.0778C26.7834 31.7798 25.9661 32.7771 25.4839 33.9437C25.0017 35.1103 24.8764 36.3936 25.1237 37.6315C25.371 38.8693 25.9799 40.0059 26.8733 40.8977L36.0636 50.1001H48.5958V37.5678Z" fill="#52CBFF" fill-opacity="0.5"/>
<path d="M36.0636 50.1001L26.8733 59.3025C25.9799 60.1942 25.371 61.3309 25.1237 62.5687C24.8764 63.8065 25.0017 65.0899 25.4839 66.2564C25.9661 67.423 26.7834 68.4204 27.8325 69.1223C28.8816 69.8243 30.1153 70.1994 31.3776 70.2001H37.3592C38.5253 70.2051 39.6806 69.9774 40.7576 69.5304C41.8346 69.0834 42.8116 68.426 43.6314 67.5967L48.5958 62.6323V50.1001H36.0636Z" fill="#52CBFF" fill-opacity="0.3"/>
</svg>
